HIERARCHY
ROOT Hips
{
  OFFSET 54.7175 85.6143 13.2309
  CHANNELS 6 Xposition Yposition Zposition Zrotation Xrotation Yrotation
  JOINT spine
  {
    OFFSET 0 6.3926 0.367606
    CHANNELS 3 Zrotation Xrotation Yrotation
    JOINT spine1
    {
      OFFSET 0 9.17611 0
      CHANNELS 3 Zrotation Xrotation Yrotation
      JOINT spine2
      {
        OFFSET 0 8.79238 0
        CHANNELS 3 Zrotation Xrotation Yrotation
        JOINT Neck
        {
          OFFSET 0 22.5737 1.07624
          CHANNELS 3 Zrotation Xrotation Yrotation
          JOINT Head
          {
            OFFSET 0 6.82011 0
            CHANNELS 3 Zrotation Xrotation Yrotation
            End Site
            {
              OFFSET 0 16.5085 -5.44427
            }
          }
        }
        JOINT RightShoulder
        {
          OFFSET -3.70221 9.49509 -0.515508
          CHANNELS 3 Zrotation Xrotation Yrotation
          JOINT RightArm
          {
            OFFSET 0 12.4537 0
            CHANNELS 3 Zrotation Xrotation Yrotation
            JOINT RightArmRoll
            {
              OFFSET 0 6.28686 0
              CHANNELS 3 Zrotation Xrotation Yrotation
              JOINT RightForeArm
              {
                OFFSET 0 18.3114 0
                CHANNELS 3 Zrotation Xrotation Yrotation
                JOINT RightForeArmRoll
                {
                  OFFSET 0 7.05482 0
                  CHANNELS 3 Zrotation Xrotation Yrotation
                  JOINT RightHand
                  {
                    OFFSET 0 14.1575 0
                    CHANNELS 3 Zrotation Xrotation Yrotation
                    End Site
                    {
                      OFFSET 0 0 0
                    }
                  }
                }
              }
            }
          }
        }
        JOINT LeftShoulder
        {
          OFFSET 3.70221 9.49509 -0.515508
          CHANNELS 3 Zrotation Xrotation Yrotation
          JOINT LeftArm
          {
            OFFSET 0 12.4537 0
            CHANNELS 3 Zrotation Xrotation Yrotation
            JOINT LeftArmRoll
            {
              OFFSET 0 6.28686 0
              CHANNELS 3 Zrotation Xrotation Yrotation
              JOINT LeftForeArm
              {
                OFFSET 0 18.3114 0
                CHANNELS 3 Zrotation Xrotation Yrotation
                JOINT LeftForeArmRoll
                {
                  OFFSET 0 7.05482 0
                  CHANNELS 3 Zrotation Xrotation Yrotation
                  JOINT LeftHand
                  {
                    OFFSET 0 14.1575 0
                    CHANNELS 3 Zrotation Xrotation Yrotation
                    End Site
                    {
                      OFFSET 0 0 0
                    }
                  }
                }
              }
            }
          }
        }
      }
    }
  }
  JOINT RightUpLeg
  {
    OFFSET -5.66615 -1.03903 -0.87161
    CHANNELS 3 Zrotation Xrotation Yrotation
    JOINT RightUpLegRoll
    {
      OFFSET 0 16.6005 0
      CHANNELS 3 Zrotation Xrotation Yrotation
      JOINT RightLeg
      {
        OFFSET 0 -20.5572 0
        CHANNELS 3 Zrotation Xrotation Yrotation
        JOINT RightLegRoll
        {
          OFFSET 0 20.6244 0
          CHANNELS 3 Zrotation Xrotation Yrotation
          JOINT RightFoot
          {
            OFFSET 0 17.1664 0
            CHANNELS 3 Zrotation Xrotation Yrotation
            JOINT RightToeBase
            {
              OFFSET 0 14.3502 0
              CHANNELS 3 Zrotation Xrotation Yrotation
              End Site
              {
                OFFSET 0.00608252 6.94971 -0.801061
              }
            }
          }
        }
      }
    }
  }
  JOINT LeftUpLeg
  {
    OFFSET 5.66615 -1.03903 -0.87161
    CHANNELS 3 Zrotation Xrotation Yrotation
    JOINT LeftUpLegRoll
    {
      OFFSET 0 16.6006 0
      CHANNELS 3 Zrotation Xrotation Yrotation
      JOINT LeftLeg
      {
        OFFSET 0 20.5571 0
        CHANNELS 3 Zrotation Xrotation Yrotation
        JOINT LeftLegRoll
        {
          OFFSET 0 20.8151 0
          CHANNELS 3 Zrotation Xrotation Yrotation
          JOINT LeftFoot
          {
            OFFSET 0 16.9757 0
            CHANNELS 3 Zrotation Xrotation Yrotation
            JOINT LeftToeBase
            {
              OFFSET 0 14.3502 0
              CHANNELS 3 Zrotation Xrotation Yrotation
              End Site
              {
                OFFSET -0.0272592 6.94971 -0.801061
              }
            }
          }
        }
      }
    }
  }
}
MOTION
Frames: 13
Frame Time: 0.00208333
54.2956 85.7325 13.4922 -2.09884 -4.49152 -2.64476 -0.195088 -0.851425 -0.183032 -0.391337 2.30053 -0.346938 -0.38762 3.94558 -0.340253 5.51257 7.49949 -0.380695 -3.0966 1.89857 0.920444 64.3225 -1.90448 -1.69982 107.479 18.8821 5.01147 -2.18459e-005 -2.0262e-006 -4.41255e-006 13.185 3.1364 -0.809835 -1.88937e-008 2.37043e-006 -3.00174 8.02885 -4.95146 0.697674 -52.3113 -0.609353 -0.44606 -114.237 15.8976 1.28554 2.11422e-006 -2.8449e-007 3.15868e-006 -10.1692 4.0863 0.898255 -1.33553e-007 -8.53656e-007 3 -8.02892 -4.95146 -0.697676 176.935 -2.33524 0.026544 180 7.0153e-015 178.851 177.471 5.44578 179.723 1.12726e-006 -1.61772e-006 0.0439973 -18.4598 67.6483 19.2462 8.13649 25.2327 -3.48774 -172.592 -1.96235 -1.24729 4.54188e-006 -4.6773e-006 -1.07043 -1.41239 -7.51195 0.492968 -8.75559e-007 3.14676e-006 0.0133391 17.0614 68.1164 -19.616 -8.13653 25.2332 3.48699 
54.2934 85.7287 13.4931 -2.1015 -4.49365 -2.64451 -0.19493 -0.85251 -0.183048 -0.391091 2.29836 -0.346149 -0.387375 3.94341 -0.339517 5.5134 7.51624 -0.38819 -3.09708 1.88561 0.913494 64.3333 -1.90687 -1.70219 107.449 18.8977 5.07744 -2.18459e-005 -2.0262e-006 -4.41255e-006 13.1499 3.07277 -0.803569 -1.88937e-008 2.37043e-006 -3.00174 8.02885 -4.95146 0.697674 -52.3153 -0.597514 -0.453839 -114.23 15.8961 1.28336 2.11422e-006 -2.8449e-007 3.15868e-006 -10.1714 4.08639 0.898424 -1.33553e-007 -8.53656e-007 3 -8.02892 -4.95146 -0.697676 176.937 -2.33827 0.0264163 180 7.0153e-015 178.851 177.47 5.44647 179.723 1.12726e-006 -1.61772e-006 0.0439973 -18.4591 67.6478 19.2456 8.13649 25.2327 -3.48774 -172.589 -1.96222 -1.2486 4.54188e-006 -4.6773e-006 -1.07072 -1.41111 -7.51795 0.493279 -8.75559e-007 3.14676e-006 0.0133093 17.0635 68.1198 -19.6187 -8.13653 25.2332 3.48699 
54.2843 85.7272 13.4855 -2.10423 -4.49573 -2.64423 -0.194714 -0.853623 -0.18307 -0.390759 2.29614 -0.345342 -0.387045 3.94118 -0.338768 5.51395 7.53374 -0.395758 -3.09756 1.87192 0.906405 64.3441 -1.90893 -1.70438 107.419 18.9128 5.14275 -2.18459e-005 -2.0262e-006 -4.41255e-006 13.1153 3.00949 -0.797295 -1.88937e-008 2.37043e-006 -3.00174 8.02885 -4.95146 0.697674 -52.3196 -0.585453 -0.461723 -114.223 15.8945 1.28105 2.11422e-006 -2.8449e-007 3.15868e-006 -10.1738 4.08633 0.898566 -1.33553e-007 -8.53656e-007 3 -8.02892 -4.95146 -0.697676 176.939 -2.34124 0.026221 180 7.0153e-015 178.851 177.47 5.44719 179.723 1.12726e-006 -1.61772e-006 0.0439973 -18.4585 67.6472 19.245 8.13649 25.2327 -3.48774 -172.586 -1.96212 -1.24994 4.54188e-006 -4.6773e-006 -1.07102 -1.40984 -7.52373 0.4936 -8.75559e-007 3.14676e-006 0.0132863 17.0656 68.123 -19.6212 -8.13653 25.2332 3.48699 
54.302 85.8032 13.486 -2.10699 -4.49776 -2.64392 -0.194457 -0.854755 -0.183096 -0.390368 2.29388 -0.344523 -0.386656 3.93892 -0.338009 5.51431 7.55176 -0.403379 -3.09805 1.85774 0.89922 64.355 -1.91075 -1.70645 107.389 18.9277 5.20761 -2.18459e-005 -2.0262e-006 -4.41255e-006 13.0813 2.94645 -0.791014 -1.88937e-008 2.37043e-006 -3.00174 8.02885 -4.95146 0.697674 -52.3243 -0.573235 -0.469681 -114.216 15.893 1.27865 2.11422e-006 -2.8449e-007 3.15868e-006 -10.1762 4.08618 0.898688 -1.33553e-007 -8.53656e-007 3 -8.02892 -4.95146 -0.697676 176.941 -2.34417 0.0259783 180 7.0153e-015 178.851 177.469 5.44787 179.723 1.12726e-006 -1.61772e-006 0.0439973 -18.4578 67.6467 19.2444 8.13649 25.2327 -3.48774 -172.584 -1.96204 -1.25131 4.54188e-006 -4.6773e-006 -1.07133 -1.40858 -7.52937 0.493928 -8.75559e-007 3.14676e-006 0.013268 17.0678 68.1261 -19.6238 -8.13653 25.2332 3.48699 
54.3 85.7895 13.4909 -2.10978 -4.49977 -2.6436 -0.194177 -0.855897 -0.183125 -0.389943 2.29159 -0.343696 -0.386233 3.93663 -0.337245 5.51456 7.57009 -0.41103 -3.09855 1.84326 0.89198 64.3659 -1.91244 -1.70845 107.359 18.9424 5.27221 -2.18459e-005 -2.0262e-006 -4.41255e-006 13.0474 2.88355 -0.784731 -1.88937e-008 2.37043e-006 -3.00174 8.02885 -4.95146 0.697674 -52.329 -0.560929 -0.477682 -114.208 15.8915 1.2762 2.11422e-006 -2.84489e-007 3.15868e-006 -10.1786 4.08597 0.8988 -1.33553e-007 -8.53656e-007 3 -8.02892 -4.95146 -0.697676 176.943 -2.34708 0.0257085 180 7.0153e-015 178.851 177.469 5.44858 179.722 1.12726e-006 -1.61772e-006 0.0439973 -18.4572 67.6461 19.2438 8.13649 25.2327 -3.48774 -172.581 -1.96196 -1.25269 4.54188e-006 -4.6773e-006 -1.07165 -1.40732 -7.53493 0.49426 -8.75559e-007 3.14676e-006 0.0132524 17.0699 68.1292 -19.6262 -8.13653 25.2332 3.48699 
54.2907 85.7259 13.4922 -2.11258 -4.50178 -2.64328 -0.19389 -0.857043 -0.183154 -0.38951 2.2893 -0.342868 -0.3858 3.93434 -0.336479 5.51479 7.58849 -0.418689 -3.09905 1.82871 0.884727 64.3768 -1.9141 -1.71043 107.329 18.9571 5.33676 -2.18459e-005 -2.0262e-006 -4.41255e-006 13.0137 2.82069 -0.778448 -1.88937e-008 2.37043e-006 -3.00174 8.02885 -4.95146 0.697674 -52.3338 -0.548601 -0.485693 -114.201 15.89 1.27373 2.11422e-006 -2.8449e-007 3.15868e-006 -10.181 4.08575 0.898908 -1.33553e-007 -8.53656e-007 3 -8.02892 -4.95146 -0.697676 176.945 -2.34999 0.0254319 180 7.0153e-015 178.851 177.468 5.44928 179.722 1.12726e-006 -1.61772e-006 0.0439973 -18.4565 67.6456 19.2432 8.13649 25.2327 -3.48774 -172.578 -1.96189 -1.25408 4.54188e-006 -4.6773e-006 -1.07197 -1.40606 -7.54046 0.494593 -8.75559e-007 3.14676e-006 0.0132375 17.0721 68.1323 -19.6287 -8.13653 25.2332 3.48699 
54.2935 85.7497 13.4936 -2.11537 -4.50379 -2.64296 -0.193616 -0.858183 -0.183182 -0.389093 2.28703 -0.342044 -0.385385 3.93206 -0.335716 5.51508 7.60674 -0.426334 -3.09955 1.81431 0.877501 64.3877 -1.91582 -1.71244 107.299 18.9718 5.40145 -2.18459e-005 -2.0262e-006 -4.41255e-006 12.9798 2.75775 -0.77217 -1.88937e-008 2.37043e-006 -3.00174 8.02885 -4.95146 0.697674 -52.3386 -0.536317 -0.493684 -114.194 15.8885 1.27129 2.11422e-006 -2.8449e-007 3.15868e-006 -10.1835 4.08555 0.899022 -1.33553e-007 -8.53656e-007 3 -8.02892 -4.95146 -0.697676 176.947 -2.3529 0.0251689 180 7.0153e-015 178.851 177.468 5.44998 179.722 1.12726e-006 -1.61772e-006 0.0439973 -18.4559 67.645 19.2426 8.13649 25.2327 -3.48774 -172.575 -1.96181 -1.25546 4.54188e-006 -4.6773e-006 -1.07228 -1.40479 -7.54603 0.494924 -8.75559e-007 3.14676e-006 0.0132213 17.0742 68.1354 -19.6311 -8.13653 25.2332 3.48699 
54.2864 85.7391 13.4946 -2.11812 -4.50584 -2.64267 -0.19337 -0.859309 -0.183207 -0.388719 2.28477 -0.341228 -0.385013 3.92981 -0.33496 5.51552 7.62462 -0.433943 -3.10005 1.80026 0.870344 64.3986 -1.91771 -1.71454 107.269 18.9866 5.46649 -2.18459e-005 -2.0262e-006 -4.41255e-006 12.9457 2.69464 -0.765898 -1.88937e-008 2.37043e-006 -3.00174 8.02885 -4.95146 0.697674 -52.3431 -0.524144 -0.501621 -114.187 15.887 1.26892 2.11422e-006 -2.84489e-007 3.15868e-006 -10.1858 4.08543 0.89915 -1.33553e-007 -8.53656e-007 3 -8.02892 -4.95146 -0.697676 176.949 -2.35584 0.0249397 180 7.0153e-015 178.851 177.467 5.45068 179.722 1.12726e-006 -1.61772e-006 0.0439973 -18.4552 67.6445 19.242 8.13649 25.2327 -3.48774 -172.572 -1.96172 -1.25682 4.54188e-006 -4.6773e-006 -1.07259 -1.40353 -7.55172 0.49525 -8.75559e-007 3.14676e-006 0.0132016 17.0764 68.1386 -19.6336 -8.13653 25.2332 3.48699 
54.2873 85.742 13.4971 -2.12083 -4.50793 -2.6424 -0.193172 -0.860413 -0.183227 -0.388412 2.28257 -0.340427 -0.384708 3.9276 -0.334215 5.51618 7.64189 -0.441494 -3.10055 1.7868 0.863298 64.4094 -1.91987 -1.71679 107.239 19.0018 5.53208 -2.18459e-005 -2.0262e-006 -4.41255e-006 12.9111 2.63125 -0.759636 -1.88937e-008 2.37043e-006 -3.00174 8.02885 -4.95146 0.697674 -52.3473 -0.51215 -0.509473 -114.18 15.8855 1.26665 2.11422e-006 -2.8449e-007 3.15868e-006 -10.1882 4.08541 0.899301 -1.33553e-007 -8.53656e-007 3 -8.02892 -4.95146 -0.697676 176.951 -2.35883 0.0247646 180 7.0153e-015 178.851 177.466 5.45137 179.722 1.12726e-006 -1.61772e-006 0.0439973 -18.4546 67.6439 19.2414 8.13649 25.2327 -3.48774 -172.569 -1.96162 -1.25815 4.54188e-006 -4.6773e-006 -1.07289 -1.40225 -7.55756 0.495568 -8.75559e-007 3.14676e-006 0.0131766 17.0785 68.1419 -19.6363 -8.13653 25.2332 3.48699 
54.2876 85.7289 13.4985 -2.12347 -4.51009 -2.64216 -0.193038 -0.861488 -0.18324 -0.3882 2.28042 -0.339644 -0.384497 3.92545 -0.333485 5.51716 7.65833 -0.448964 -3.10105 1.77412 0.856403 64.4202 -1.92239 -1.71923 107.209 19.0173 5.59842 -2.18459e-005 -2.0262e-006 -4.41255e-006 12.8758 2.56748 -0.753388 -1.88937e-008 2.37043e-006 -3.00174 8.02885 -4.95146 0.697674 -52.3511 -0.5004 -0.517209 -114.173 15.884 1.26451 2.11422e-006 -2.8449e-007 3.15868e-006 -10.1905 4.08556 0.899481 -1.33553e-007 -8.53656e-007 3 -8.02892 -4.95146 -0.697676 176.953 -2.36188 0.0246641 180 7.0153e-015 178.851 177.466 5.45205 179.722 1.12726e-006 -1.61772e-006 0.0439973 -18.454 67.6434 19.2408 8.13649 25.2327 -3.48774 -172.567 -1.96149 -1.25945 4.54188e-006 -4.6773e-006 -1.07318 -1.40097 -7.56364 0.495875 -8.75559e-007 3.14676e-006 0.0131441 17.0806 68.1453 -19.639 -8.13653 25.2332 3.48699 
54.2839 85.7277 13.5026 -2.12603 -4.51232 -2.64198 -0.192986 -0.862524 -0.183244 -0.388106 2.27835 -0.338886 -0.384406 3.92338 -0.332773 5.51853 7.67372 -0.456331 -3.10155 1.76245 0.849702 64.4309 -1.92538 -1.72192 107.179 19.0334 5.66571 -2.18459e-005 -2.0262e-006 -4.41255e-006 12.8397 2.50323 -0.747157 -1.88937e-008 2.37043e-006 -3.00174 8.02885 -4.95146 0.697674 -52.3544 -0.488963 -0.524797 -114.167 15.8824 1.26256 2.11422e-006 -2.8449e-007 3.15868e-006 -10.1926 4.08589 0.899701 -1.33553e-007 -8.53656e-007 3 -8.02892 -4.95146 -0.697676 176.954 -2.36502 0.0246582 180 7.0153e-015 178.851 177.465 5.45274 179.722 1.12726e-006 -1.61772e-006 0.0439973 -18.4534 67.6429 19.2402 8.13649 25.2327 -3.48774 -172.564 -1.96133 -1.26069 4.54188e-006 -4.6773e-006 -1.07344 -1.39968 -7.57002 0.496169 -8.75559e-007 3.14676e-006 0.0131021 17.0828 68.1489 -19.6418 -8.13653 25.2332 3.48699 
54.2927 85.7293 13.5028 -2.12849 -4.51466 -2.64185 -0.193034 -0.863514 -0.183238 -0.388156 2.27637 -0.338158 -0.38446 3.9214 -0.332085 5.52037 7.68783 -0.463574 -3.10203 1.752 0.843236 64.4415 -1.92893 -1.72491 107.149 19.0501 5.73416 -2.18459e-005 -2.0262e-006 -4.41255e-006 12.8026 2.43838 -0.740946 -1.88937e-008 2.37043e-006 -3.00174 8.02885 -4.95146 0.697674 -52.357 -0.477904 -0.532205 -114.162 15.8809 1.26082 2.11422e-006 -2.8449e-007 3.15868e-006 -10.1947 4.08647 0.899968 -1.33553e-007 -8.53656e-007 3 -8.02892 -4.95146 -0.697676 176.956 -2.36824 0.0247675 180 7.0153e-015 178.851 177.464 5.45343 179.722 1.12726e-006 -1.61772e-006 0.0439973 -18.4528 67.6423 19.2396 8.13649 25.2327 -3.48774 -172.561 -1.96113 -1.26187 4.54188e-006 -4.6773e-006 -1.07369 -1.39837 -7.57675 0.496446 -8.75559e-007 3.14676e-006 0.0130486 17.0849 68.1527 -19.6449 -8.13653 25.2332 3.48699 
54.2904 85.7259 13.5076 -2.13083 -4.51712 -2.64179 -0.193199 -0.86445 -0.18322 -0.388377 2.2745 -0.337464 -0.384684 3.91953 -0.331424 5.52277 7.70043 -0.47067 -3.10251 1.74299 0.837045 64.4521 -1.93314 -1.72826 107.119 19.0676 5.80397 -2.18459e-005 -2.0262e-006 -4.41255e-006 12.7643 2.37284 -0.734759 -1.88937e-008 2.37043e-006 -3.00174 8.02885 -4.95146 0.697674 -52.3589 -0.46729 -0.539401 -114.157 15.8794 1.25933 2.11422e-006 -2.8449e-007 3.15868e-006 -10.1967 4.08732 0.90029 -1.33553e-007 -8.53656e-007 3 -8.02892 -4.95146 -0.697676 176.958 -2.37159 0.0250121 180 7.0153e-015 178.851 177.463 5.45411 179.722 1.12726e-006 -1.61772e-006 0.0439973 -18.4522 67.6418 19.2391 8.13649 25.2327 -3.48774 -172.559 -1.96089 -1.26298 4.54188e-006 -4.6773e-006 -1.07391 -1.39704 -7.5839 0.496703 -8.75559e-007 3.14676e-006 0.0129816 17.0869 68.1568 -19.6481 -8.13653 25.2332 3.48699 
